<svg xmlns="http://www.w3.org/2000/svg" viewBox="0 0 340 340"><rect x="17.182" y="27.495" width="237.284" height="285.01" rx="13.231" style="fill:#fff"/><path style="fill:#fff" d="M48.102 61.33h172.033v54.224H48.102z"/><rect x="48.102" y="205.736" width="58.007" height="67.518" rx="5.404" style="fill:#88b0ea"/><path d="m322.786 281.4-13.061 31.109-13.051-31.113.033-204.722a9.611 9.611 0 0 1 9.613-9.609h6.888a9.61 9.61 0 0 1 9.61 9.612z" style="fill:#ffd071"/><path d="M313.208 67.062h-6.888a9.61 9.61 0 0 0-9.613 9.609v9.789h26.111v-9.79a9.61 9.61 0 0 0-9.61-9.608zM322.786 281.4a50.558 50.558 0 0 1-26.112 0l13.051 31.113z" style="fill:#e89c52"/><path d="M159.758 154.22H79.105c-5.232-.082-5.278-7.909 0-8h80.652c5.233.08 5.279 7.908.001 8zM159.758 183.979H52.1c-5.222-.079-5.286-7.908 0-8h107.658c5.222.078 5.286 7.907 0 8zM159.758 213.736h-27.32c-5.25-.087-5.264-7.91 0-8h27.32c5.249.088 5.264 7.91 0 8zM159.758 243.5h-27.32c-5.25-.087-5.264-7.91 0-8h27.32c5.249.082 5.264 7.905 0 8zM159.758 273.254h-27.32c-5.25-.087-5.264-7.91 0-8h27.32c5.249.087 5.264 7.91 0 8zM216.135 183.979H200.5c-5.253-.089-5.26-7.911 0-8h15.634c5.254.088 5.266 7.91.001 8zM216.135 154.22H200.5c-5.253-.089-5.26-7.911 0-8h15.634c5.254.088 5.266 7.91.001 8zM216.135 243.5H200.5c-5.253-.088-5.26-7.91 0-8h15.634c5.254.083 5.266 7.906.001 8zM216.135 213.736H200.5c-5.253-.088-5.26-7.91 0-8h15.634c5.254.089 5.266 7.911.001 8zM216.135 273.254H200.5c-5.253-.088-5.26-7.911 0-8h15.634c5.254.088 5.266 7.91.001 8z" style="fill:#383a49"/><path d="M241.235 316.505H30.413a17.251 17.251 0 0 1-17.231-17.231V40.726A17.251 17.251 0 0 1 30.413 23.5h210.822a17.251 17.251 0 0 1 17.231 17.231v31.613a4 4 0 0 1-8 0V40.726a9.241 9.241 0 0 0-9.231-9.231H30.413a9.241 9.241 0 0 0-9.231 9.231v258.548a9.241 9.241 0 0 0 9.231 9.231h210.822a9.241 9.241 0 0 0 9.231-9.231V111.539a4 4 0 1 1 8 0v187.735a17.251 17.251 0 0 1-17.231 17.231z" style="fill:#383a49"/><path d="M254.466 96.419c-3.046-.069-4.312-2.68-4-5.434a4 4 0 0 1 4-4c3.047.069 4.313 2.68 4 5.434a4 4 0 0 1-4 4zM219.546 119.555H52.1a4 4 0 0 1-4-4V61.33a4 4 0 0 1 4-4h167.446a4 4 0 0 1 4 4v54.225a4 4 0 0 1-4 4zm-163.444-8h159.444V65.33H56.1zM309.725 316.505a4 4 0 0 1-3.688-2.453l-13.051-31.113c-.922-1.578.042-204.554-.28-206.273a13.627 13.627 0 0 1 13.612-13.6h6.891a13.676 13.676 0 0 1 13.609 13.613c-.308 1.548.559 204.928-.344 206.266l-13.061 31.113a4 4 0 0 1-3.688 2.447zm-9.051-35.917 9.053 21.58 9.059-21.577.032-203.918a5.637 5.637 0 0 0-5.611-5.611h-6.888a5.617 5.617 0 0 0-5.612 5.61zm22.112.808z" style="fill:#383a49"/><path d="M322.816 90.464h-26.111c-5.25-.088-5.263-7.911 0-8h26.111c5.251.088 5.264 7.911 0 8zM309.737 287.106a54.616 54.616 0 0 1-14.1-1.849c-5.05-1.441-3.041-9 2.067-7.729a46.613 46.613 0 0 0 24.046 0 4 4 0 1 1 2.063 7.729 54.588 54.588 0 0 1-14.076 1.849z" style="fill:#383a49"/></svg>