<?xml version="1.0" standalone="no"?>
<!DOCTYPE svg PUBLIC "-//W3C//DTD SVG 20010904//EN"
 "http://www.w3.org/TR/2001/REC-SVG-20010904/DTD/svg10.dtd">
<svg version="1.0" xmlns="http://www.w3.org/2000/svg"
 width="371.000000pt" height="84.000000pt" viewBox="0 0 371.000000 84.000000"
 preserveAspectRatio="xMidYMid meet">

<g transform="translate(0.000000,84.000000) scale(0.100000,-0.100000)"
fill="#000000" stroke="none">
<path d="M1702 587 c-5 -7 -49 -90 -97 -186 -59 -119 -83 -177 -76 -184 14
-14 34 4 56 53 l18 40 113 0 114 0 21 -42 c25 -49 39 -62 54 -47 11 11 -161
365 -181 373 -7 3 -17 -1 -22 -7z m63 -147 l45 -90 -90 0 c-49 0 -90 2 -90 5
0 7 84 175 87 175 2 0 23 -40 48 -90z"/>
<path d="M2095 595 c-5 -2 -27 -6 -47 -9 -51 -9 -98 -55 -98 -96 0 -70 23 -85
160 -105 56 -7 108 -19 116 -26 8 -6 14 -24 14 -40 0 -48 -48 -71 -139 -67
-68 3 -75 6 -103 37 -44 49 -75 25 -34 -28 38 -49 176 -66 253 -32 46 21 63
45 63 90 0 68 -32 88 -157 101 -96 10 -133 28 -133 65 0 39 51 65 127 65 56 0
66 -3 98 -31 26 -23 39 -29 47 -21 15 15 -13 57 -50 76 -28 14 -100 27 -117
21z"/>
<path d="M2463 589 c-82 -15 -116 -52 -111 -115 4 -54 36 -73 149 -88 109 -15
126 -21 134 -47 17 -53 -32 -89 -120 -89 -67 0 -121 20 -130 49 -7 22 -29 28
-40 11 -11 -18 25 -61 68 -81 50 -22 143 -25 191 -5 59 25 90 87 70 141 -11
27 -62 46 -151 55 -94 10 -133 28 -133 64 0 44 34 61 120 61 73 0 81 -2 109
-29 23 -22 34 -27 43 -18 8 8 7 17 -6 36 -31 48 -112 71 -193 55z"/>
<path d="M3155 588 c-3 -8 -4 -95 -3 -193 3 -152 5 -180 18 -180 13 0 15 28
15 189 0 143 -3 190 -12 193 -7 3 -15 -1 -18 -9z"/>
<path d="M260 400 c0 -162 2 -190 15 -190 13 0 15 22 15 140 0 77 3 140 8 140
4 0 34 -43 66 -95 32 -52 65 -95 72 -95 6 0 41 44 76 98 l63 97 5 -140 c4
-116 8 -140 20 -140 13 0 15 28 18 179 3 241 -2 245 -107 77 -34 -55 -66 -103
-70 -106 -5 -3 -42 47 -83 110 -40 63 -79 115 -85 115 -10 0 -13 -45 -13 -190z"/>
<path d="M797 569 c-20 -11 -49 -38 -65 -61 -38 -58 -37 -145 1 -210 83 -141
301 -102 336 60 20 95 -28 189 -112 221 -44 17 -118 12 -160 -10z m171 -36
c49 -36 66 -70 66 -126 0 -98 -56 -157 -147 -157 -61 0 -102 27 -128 84 -24
52 -23 90 0 143 35 77 142 106 209 56z"/>
<path d="M1172 577 c-9 -11 -12 -60 -10 -183 l3 -169 117 -3 c137 -3 171 8
194 65 12 27 13 42 4 69 -6 19 -15 34 -18 34 -4 0 -15 7 -25 15 -18 13 -18 14
2 34 37 37 21 100 -31 127 -47 24 -218 33 -236 11z m222 -48 c34 -27 32 -68
-4 -86 -14 -7 -61 -13 -107 -13 l-83 0 0 60 0 60 84 0 c70 0 88 -3 110 -21z
m16 -149 c52 -28 45 -99 -12 -119 -17 -6 -69 -11 -114 -11 l-84 0 0 70 0 70
96 0 c52 0 104 -5 114 -10z"/>
<path d="M2754 577 c-2 -7 -3 -91 -2 -187 3 -148 5 -175 18 -175 12 0 16 17
18 83 l3 82 109 0 109 0 3 -82 c2 -66 6 -83 18 -83 13 0 15 29 18 188 2 182 2
187 -18 187 -19 0 -20 -6 -20 -90 l0 -90 -110 0 -110 0 0 90 c0 74 -3 90 -15
90 -9 0 -18 -6 -21 -13z"/>
<path d="M3292 578 c-9 -12 -12 -61 -10 -189 3 -147 5 -174 18 -174 12 0 16
15 18 68 l3 67 58 0 58 0 66 -71 c58 -62 87 -79 87 -49 0 5 -23 33 -51 64
l-50 55 25 7 c40 10 76 59 76 102 -1 89 -48 122 -188 129 -79 5 -100 3 -110
-9z m227 -54 c22 -18 31 -35 31 -56 0 -66 -38 -88 -156 -88 l-74 0 0 85 0 85
84 0 c76 0 87 -3 115 -26z"/>
</g>
</svg>
